#!OML:ASF F:\VICON\USERDATA\INSTALL\rory3\rory3.ASF
:FULLY-SPECIFIED
:DEGREES
109
root 0.796456676636458 18.183003789979992 28.63125885194722 3.6947498798365968 -0.6410389285452559 -4.450135796142826
lfemur -39.677249559947796 5.5773811499982 -11.75095115949214
ltibia 88.17505937727142
lfoot -0.8053126350021236 -0.26576174355499127
ltoes -9.250521516118683
rfemur -5.51664752643271 -0.9473292495595627 29.724940748910015
rtibia 26.85824065369635
rfoot -5.077186402883177 -7.540884082342559
rtoes -21.877792742235766
lowerback nan -1.0672367022445535 1.6685739540940687
upperback -0.43283182793814096 2.9458615151842036 0.15325438946371173
thorax -6.6355674987603175 0.20236411286463396 1.14649632466197
lowerneck -19.16691836987399 -5.400024946822732 -2.3477947742364877
upperneck 9.200943646754698 -5.646406929898898 3.845036244776967
head 6.076526700974104 -2.9118754255102637 0.9329581135291245
lclavicle 4.4572691597836017e-14 2.391566260776219e-14
lhumerus -58.700498935783195 -6.9132448090076135 92.50052832375523
lradius 104.55950343134867
lwrist 34.60862868750656
lhand -23.63495964271143 8.703819401290934
lfingers nan
lthumb 2.9807145759435567 38.71658410199828
rclavicle 4.9093524852288085e-14 2.2699188354119387e-14
rhumerus -40.01699758081526 10.286929345806122 -95.82983408309184
rradius 128.92194406192166
rwrist -16.415165067716963
rhand -22.784306545970495 nan
rfingers nan
rthumb 3.4779295883816665 4.340522707265657
110
root 0.8089582057159661 18.25190200442461 28.81779733825438 3.6821122760420026 0.2514719441786306 -4.284815158923485
lfemur -40.16605331935991 3.889518009870232 -12.284835271365004
ltibia 84.02847314254551
lfoot -0.3476173959272062 0.07250020071329644
ltoes -9.723773506128147
rfemur -4.325457038172711 -1.6626596080939637 29.094706347053062
rtibia 25.079636238074364
rfoot -0.14861254052873019 -5.626754204370363
rtoes -20.06940997800237
lowerback nan -1.154814519187493 1.6261906410697986
upperback -0.5670659382288203 2.8748535202771164 0.10137559422953002
thorax -6.788132832776254 0.14494530951248935 1.1396018190398451
lowerneck -19.137856149543545 -5.469441560567878 -2.4048072498053847
upperneck 9.547996974639068 -5.70733907001501 3.875478644975098
head 6.173478860734273 -2.9720637587468492 0.9412579066867037
lclavicle -3.0104347762115005e-14 -1.0533544114108824e-14
lhumerus -59.44258874169232 -6.6944074361712955 92.57889710191596
lradius 105.2597485210018
lwrist 34.2851954974524
lhand -24.396698631720103 6.279866372643127
lfingers nan
lthumb 2.284308663503785 36.260151188554616
rclavicle -2.5547761386092052e-14 -1.1116855803062878e-14
rhumerus -40.307095115094285 10.790532866189293 -95.49184740844778
rradius 130.31698978767207
rwrist -14.468438001290066
rhand -23.95854307802001 nan
rfingers nan
rthumb 2.3234837331199527 -0.46563214586303836
111
root 0.8466164430811516 18.323593030303876 29.709182590546156 3.433048695229147 -0.05583436468857439 -3.726674223435648
lfemur -39.864116327610255 3.0314375467352965 -13.289768466015145
ltibia 79.5418133317785
lfoot -0.5416983650007401 1.0966171842596477
ltoes -9.989733041504119
rfemur -3.0785246183401966 -1.9798334684811683 27.518442305644395
rtibia 23.57354407816083
rfoot 4.931582204787019 -3.249927397265698
rtoes -17.39585820149728
lowerback nan -1.0046655692248865 1.3758573367072722
upperback -0.4641689409937447 3.009696239775269 -0.10877283798631954
thorax -5.981359573366719 0.2093891077309647 1.0979247418071008
lowerneck -19.218628983734916 -5.506681299480358 -2.3845461068188634
upperneck 10.101279330806568 -5.741351343751671 3.807976878952082
head 6.334070888017215 -3.014685677577826 0.9149369561927497
lclavicle -3.414691033213779e-14 5.881397152693658e-15
lhumerus -59.98877822046281 -6.412124782796401 92.46719265792021
lradius 105.57370108721285
lwrist 33.912715851715745
lhand -24.775583495684177 5.8467316133554945
lfingers nan
lthumb 1.9794095006087324 35.878468868005896
rclavicle -2.930356969876309e-14 5.297196225029371e-15
rhumerus -40.515328686534396 10.996099060585173 -94.89803500171814
rradius 130.89964504689303
rwrist -16.23335406682998
rhand -20.833651378968856 nan
rfingers nan
rthumb 5.261089324534752 -1.2609238249566879
112
root 0.867878314341817 18.368933795491614 30.52532262708019 3.158784888343935 0.3236133973571178 -3.295199980188967
lfemur -39.63775059281677 1.5881795763861177 -13.977158630082405
ltibia 75.03842335201008
lfoot -0.6824752028993384 1.6231690026250085
ltoes -10.053487542956818
rfemur -1.9795058307122773 -2.3480277247275416 26.3976765054924
rtibia 22.118534914510967
rfoot 10.147107676081998 -2.3651932202937065
rtoes -22.09386549318175
lowerback nan -0.9920272742912964 1.0975164470993386
upperback -0.476495867562144 2.990155956259189 -0.20748161755549388
thorax -5.97262706060781 0.19894041146031033 1.1069560679642376
lowerneck -18.984057811093784 -5.536081751674425 -2.357912215087866
upperneck 10.462577687374361 -5.784803593919304 3.7151915849141917
head 6.378165791425263 -3.072400646913654 0.8853841363521542
lclavicle 3.459786059342453e-14 -7.523144829707722e-15
lhumerus -60.444687893696916 -6.118880475652843 92.23511121291199
lradius 105.69796805694611
lwrist 33.946015642521374
lhand -26.201801099955443 8.371843415139658
lfingers nan
lthumb 0.6369116844320524 38.443077266266066
rclavicle 3.904069224274889e-14 -8.636095325208657e-15
rhumerus -40.96589725855399 11.412515882756914 -94.5815285939736
rradius 131.30890490655483
rwrist -15.957540524711945
rhand -20.476172904592897 nan
rfingers nan
rthumb 5.615165527535886 -1.4038858875562479
